<svg width="1713" height="787" viewBox="0 0 1713 787" fill="none" xmlns="http://www.w3.org/2000/svg">
<path d="M105.371 588L95.0195 554.016H42.9688L32.6172 588H0L50.3906 444.641H87.4023L137.988 588H105.371ZM87.793 528.625L77.4414 495.422C76.7904 493.208 75.9115 490.376 74.8047 486.926C73.763 483.41 72.6888 479.862 71.582 476.281C70.5404 472.635 69.694 469.478 69.043 466.809C68.3919 469.478 67.4805 472.798 66.3086 476.77C65.2018 480.676 64.1276 484.387 63.0859 487.902C62.0443 491.418 61.2956 493.924 60.8398 495.422L50.5859 528.625H87.793ZM210.254 507.824H266.895V581.848C259.408 584.322 251.628 586.307 243.555 587.805C235.482 589.237 226.335 589.953 216.113 589.953C201.921 589.953 189.876 587.154 179.98 581.555C170.085 575.956 162.565 567.688 157.422 556.75C152.279 545.812 149.707 532.368 149.707 516.418C149.707 501.444 152.572 488.488 158.301 477.551C164.095 466.613 172.526 458.15 183.594 452.16C194.727 446.171 208.301 443.176 224.316 443.176C231.868 443.176 239.323 443.99 246.68 445.617C254.036 447.245 260.71 449.361 266.699 451.965L256.641 476.184C252.279 473.97 247.298 472.115 241.699 470.617C236.1 469.12 230.241 468.371 224.121 468.371C215.332 468.371 207.682 470.389 201.172 474.426C194.727 478.462 189.714 484.126 186.133 491.418C182.617 498.645 180.859 507.173 180.859 517.004C180.859 526.314 182.129 534.582 184.668 541.809C187.207 548.97 191.211 554.602 196.68 558.703C202.148 562.74 209.277 564.758 218.066 564.758C222.363 564.758 225.977 564.562 228.906 564.172C231.901 563.716 234.701 563.26 237.305 562.805V533.02H210.254V507.824ZM342.578 445.227C355.534 445.227 366.211 446.789 374.609 449.914C383.073 453.039 389.355 457.759 393.457 464.074C397.559 470.389 399.609 478.365 399.609 488C399.609 494.51 398.372 500.207 395.898 505.09C393.424 509.973 390.169 514.107 386.133 517.492C382.096 520.878 377.734 523.645 373.047 525.793L415.039 588H381.445L347.363 533.215H331.25V588H300.977V445.227H342.578ZM340.43 470.031H331.25V508.605H341.016C351.042 508.605 358.203 506.945 362.5 503.625C366.862 500.24 369.043 495.292 369.043 488.781C369.043 482.01 366.699 477.193 362.012 474.328C357.389 471.464 350.195 470.031 340.43 470.031ZM562.598 516.418C562.598 527.421 561.23 537.447 558.496 546.496C555.762 555.48 551.595 563.228 545.996 569.738C540.462 576.249 533.431 581.262 524.902 584.777C516.374 588.228 506.283 589.953 494.629 589.953C482.975 589.953 472.884 588.228 464.355 584.777C455.827 581.262 448.763 576.249 443.164 569.738C437.63 563.228 433.496 555.448 430.762 546.398C428.027 537.349 426.66 527.29 426.66 516.223C426.66 501.444 429.069 488.586 433.887 477.648C438.77 466.646 446.257 458.117 456.348 452.062C466.439 446.008 479.264 442.98 494.824 442.98C510.319 442.98 523.047 446.008 533.008 452.062C543.034 458.117 550.456 466.646 555.273 477.648C560.156 488.651 562.598 501.574 562.598 516.418ZM458.398 516.418C458.398 526.379 459.635 534.973 462.109 542.199C464.648 549.361 468.587 554.895 473.926 558.801C479.264 562.642 486.165 564.562 494.629 564.562C503.223 564.562 510.189 562.642 515.527 558.801C520.866 554.895 524.74 549.361 527.148 542.199C529.622 534.973 530.859 526.379 530.859 516.418C530.859 501.444 528.06 489.66 522.461 481.066C516.862 472.473 507.65 468.176 494.824 468.176C486.296 468.176 479.329 470.129 473.926 474.035C468.587 477.876 464.648 483.41 462.109 490.637C459.635 497.798 458.398 506.392 458.398 516.418ZM718.848 588H680.371L618.262 479.992H617.383C617.643 484.484 617.871 489.009 618.066 493.566C618.262 498.124 618.457 502.681 618.652 507.238C618.848 511.73 619.043 516.255 619.238 520.812V588H592.188V445.227H630.371L692.383 552.16H693.066C692.936 547.733 692.773 543.339 692.578 538.977C692.383 534.615 692.188 530.253 691.992 525.891C691.862 521.529 691.732 517.167 691.602 512.805V445.227H718.848V588ZM884.473 516.418C884.473 527.421 883.105 537.447 880.371 546.496C877.637 555.48 873.47 563.228 867.871 569.738C862.337 576.249 855.306 581.262 846.777 584.777C838.249 588.228 828.158 589.953 816.504 589.953C804.85 589.953 794.759 588.228 786.23 584.777C777.702 581.262 770.638 576.249 765.039 569.738C759.505 563.228 755.371 555.448 752.637 546.398C749.902 537.349 748.535 527.29 748.535 516.223C748.535 501.444 750.944 488.586 755.762 477.648C760.645 466.646 768.132 458.117 778.223 452.062C788.314 446.008 801.139 442.98 816.699 442.98C832.194 442.98 844.922 446.008 854.883 452.062C864.909 458.117 872.331 466.646 877.148 477.648C882.031 488.651 884.473 501.574 884.473 516.418ZM780.273 516.418C780.273 526.379 781.51 534.973 783.984 542.199C786.523 549.361 790.462 554.895 795.801 558.801C801.139 562.642 808.04 564.562 816.504 564.562C825.098 564.562 832.064 562.642 837.402 558.801C842.741 554.895 846.615 549.361 849.023 542.199C851.497 534.973 852.734 526.379 852.734 516.418C852.734 501.444 849.935 489.66 844.336 481.066C838.737 472.473 829.525 468.176 816.699 468.176C808.171 468.176 801.204 470.129 795.801 474.035C790.462 477.876 786.523 483.41 783.984 490.637C781.51 497.798 780.273 506.392 780.273 516.418Z" fill="#E11E1E"/>
<path d="M995.703 588H914.844V445.227H995.703V464.953H938.281V503.723H992.09V523.352H938.281V568.176H995.703V588ZM1131.93 588H1105.27L1069.34 529.504L1033.2 588H1008.11L1055.57 513.977L1011.33 445.227H1037.21L1070.41 499.328L1103.42 445.227H1128.52L1084.08 514.66L1131.93 588ZM1192.68 445.227C1211.1 445.227 1224.54 449.003 1233.01 456.555C1241.47 464.107 1245.7 474.686 1245.7 488.293C1245.7 494.478 1244.73 500.37 1242.77 505.969C1240.89 511.503 1237.76 516.418 1233.4 520.715C1229.04 524.947 1223.27 528.299 1216.11 530.773C1209.02 533.247 1200.26 534.484 1189.84 534.484H1174.61V588H1151.17V445.227H1192.68ZM1191.11 464.66H1174.61V514.953H1187.4C1194.76 514.953 1201.01 514.107 1206.15 512.414C1211.3 510.656 1215.2 507.889 1217.87 504.113C1220.54 500.337 1221.88 495.357 1221.88 489.172C1221.88 480.904 1219.37 474.751 1214.36 470.715C1209.41 466.678 1201.66 464.66 1191.11 464.66ZM1400.98 516.418C1400.98 527.421 1399.58 537.447 1396.78 546.496C1394.04 555.48 1389.91 563.228 1384.38 569.738C1378.84 576.184 1371.91 581.164 1363.57 584.68C1355.24 588.195 1345.48 589.953 1334.28 589.953C1322.88 589.953 1312.99 588.195 1304.59 584.68C1296.26 581.164 1289.32 576.151 1283.79 569.641C1278.32 563.13 1274.22 555.35 1271.48 546.301C1268.75 537.251 1267.38 527.225 1267.38 516.223C1267.38 501.509 1269.79 488.684 1274.61 477.746C1279.49 466.743 1286.88 458.215 1296.78 452.16C1306.74 446.04 1319.3 442.98 1334.47 442.98C1349.32 442.98 1361.65 446.008 1371.48 452.062C1381.32 458.117 1388.67 466.646 1393.55 477.648C1398.5 488.586 1400.98 501.509 1400.98 516.418ZM1291.99 516.418C1291.99 527.421 1293.49 536.958 1296.48 545.031C1299.48 553.039 1304.07 559.224 1310.25 563.586C1316.5 567.883 1324.51 570.031 1334.28 570.031C1344.11 570.031 1352.12 567.883 1358.3 563.586C1364.49 559.224 1369.04 553.039 1371.97 545.031C1374.9 536.958 1376.37 527.421 1376.37 516.418C1376.37 499.686 1373.01 486.6 1366.31 477.16C1359.67 467.655 1349.06 462.902 1334.47 462.902C1324.71 462.902 1316.67 465.051 1310.35 469.348C1304.1 473.645 1299.48 479.797 1296.48 487.805C1293.49 495.747 1291.99 505.285 1291.99 516.418ZM1471.78 445.227C1484.08 445.227 1494.24 446.724 1502.25 449.719C1510.32 452.714 1516.31 457.271 1520.21 463.391C1524.19 469.51 1526.17 477.29 1526.17 486.73C1526.17 493.762 1524.87 499.751 1522.27 504.699C1519.66 509.647 1516.24 513.749 1512.01 517.004C1507.78 520.259 1503.26 522.863 1498.44 524.816L1538.96 588H1512.5L1478.03 530.773H1455.08V588H1431.64V445.227H1471.78ZM1470.21 464.758H1455.08V511.438H1471.29C1482.16 511.438 1490.04 509.419 1494.92 505.383C1499.87 501.346 1502.34 495.389 1502.34 487.512C1502.34 479.243 1499.71 473.384 1494.43 469.934C1489.23 466.483 1481.15 464.758 1470.21 464.758ZM1608.89 588H1585.35V465.148H1543.55V445.227H1650.59V465.148H1608.89V588Z" fill="#F6CB3C"/>
<path d="M340.354 265.669C336.064 280.613 329.935 294.967 322.108 308.401H360.178C361.824 309.403 363.565 310.241 365.374 310.903C369.637 312.483 374.23 312.958 378.726 312.285C383.222 311.612 387.474 309.812 391.088 307.054L401.558 299.932C396.923 310.193 391.451 320.056 385.198 329.42C371.284 350.073 353.508 367.838 332.848 381.738C322.403 388.759 311.319 394.778 299.744 399.717C287.889 404.809 275.546 408.679 262.906 411.266C237.146 416.348 210.642 416.348 184.881 411.266C172.462 408.758 160.327 405.005 148.66 400.063L148.044 399.832C136.473 394.885 125.39 388.866 114.94 381.854C104.625 374.924 95.0077 367.008 86.2244 358.216C82.3751 354.367 78.7567 350.517 75.2539 346.282C80.813 341.504 86.6483 337.056 92.7296 332.962C95.6294 336.324 98.6319 339.558 101.737 342.664C109.484 350.45 117.981 357.452 127.104 363.568C136.458 369.804 146.367 375.165 156.705 379.582L157.205 379.813C167.495 384.158 178.2 387.447 189.154 389.63C191.887 390.169 194.697 390.67 197.507 391.055C174.171 371.713 153.465 349.401 135.919 324.685H105.124C116.672 317.371 129.529 310.249 142.27 303.55C143.232 305.206 144.233 306.823 145.272 308.439H215.56V269.018L220.949 266.747C223.499 271.641 227.545 275.593 232.497 278.027V308.401H302.439C319.145 282.184 328.152 255.775 329.384 229.212L340.47 265.669H340.354ZM197.661 202.918C200.279 194.564 207.554 187.866 218.101 181.09L182.072 138.974C179.646 136.857 180.262 135.125 182.533 133.623L194.505 128.503C195.469 128.198 196.488 128.106 197.491 128.232C198.494 128.358 199.458 128.7 200.317 129.235L252.629 155.605L314.217 119.995L229.071 14.1276C226.877 11.7023 227.185 9.8159 230.611 8.58398L249.857 0.884521L377.808 83.6152L423.999 61.1713C441.59 53.4718 456.756 52.2399 466.341 57.976C468.581 58.897 470.461 60.5218 471.697 62.6051C472.933 64.6885 473.458 67.1173 473.193 69.5252C473.385 81.0744 463.724 93.5475 446.671 104.173L398.671 122.882L394.821 275.062L377.654 286.612C374.69 288.729 372.958 287.959 372.188 284.764L332.463 154.989L268.411 185.787L260.712 243.533C260.659 244.57 260.381 245.583 259.895 246.5C259.41 247.418 258.73 248.218 257.902 248.846L247.009 255.852C244.507 256.853 242.736 256.391 242.39 253.196L227.916 199.685C216.369 204.612 206.668 206.845 198.277 204.227C197.507 203.996 197.43 203.65 197.661 202.918ZM181.494 176.24C130.607 203.188 62.5513 246.959 37.5309 272.483C-44.3049 356.754 19.5548 422.43 115.171 393.672C85.2235 389.245 61.7814 383.201 48.7708 374.655C-6.77435 338.159 171.948 259.394 213.751 242.147L210.479 230.02C203.903 230.617 197.274 229.924 190.963 227.98L188.615 226.941C185.507 225.79 182.681 223.99 180.324 221.66C177.968 219.33 176.136 216.523 174.95 213.428L174.45 212.081C172.385 206.826 172.29 201.001 174.18 195.681C176.121 189.395 179.272 183.549 183.457 178.473L181.571 176.24H181.494ZM30.7947 243.956C29.9084 236.147 29.4715 228.294 29.4859 220.435C29.4738 207.327 30.7633 194.251 33.3352 181.398C35.8117 168.974 39.5522 156.836 44.4981 145.172L44.7291 144.595C49.7039 133.017 55.7342 121.921 62.7437 111.449C69.65 101.138 77.5534 91.5317 86.3398 82.7683C95.1232 73.9771 104.74 66.0608 115.055 59.1309C125.505 52.1187 136.588 46.0997 148.159 41.1527C160.016 36.0658 172.359 32.1963 184.997 29.6035C192.462 28.1183 200.006 27.0643 207.592 26.4467C208.454 27.7925 209.406 29.0787 210.441 30.2965L232.459 57.745V115.953H271.798L251.821 127.502L215.56 109.254V57.6295C195.121 75.1544 176.499 94.6942 159.977 115.953H165.096C160.996 119.481 158.08 124.185 156.743 129.427C156.448 130.436 156.229 131.465 156.089 132.507V132.853H148.121C138.872 146.936 131.448 162.135 126.026 178.088C119.059 182.284 112.053 186.557 105.124 190.946C109.634 170.412 117.433 150.743 128.22 132.699H75.2154C71.377 139.311 67.9448 146.151 64.9378 153.18L64.7069 153.68C60.3327 164.014 57.0432 174.774 54.8912 185.787C53.1681 194.445 52.1129 203.223 51.7348 212.042H73.1368C58.4695 221.939 44.3357 232.605 30.7947 243.995V243.956ZM329.153 228.943H287.542L289.813 212.004H324.072L329.191 228.943H329.153ZM311.792 324.647C294.228 349.36 273.525 371.683 250.204 391.055C253.014 390.631 255.785 390.131 258.557 389.592C269.673 387.349 280.532 383.982 290.968 379.544C301.31 375.135 311.22 369.774 320.569 363.529C329.692 357.413 338.189 350.411 345.936 342.625C351.665 337.027 356.978 331.019 361.833 324.647H311.792ZM232.42 384.048C254.205 366.582 273.89 346.648 291.083 324.647H232.42V384.048ZM215.56 324.647H156.859C174.074 346.641 193.772 366.574 215.56 384.048V324.647ZM139.191 115.953C156.533 91.6316 176.632 69.3991 199.085 49.6991C195.775 50.1611 192.503 50.7 189.27 51.3545C178.13 53.5548 167.254 56.9227 156.82 61.4023C146.482 65.8193 136.573 71.1803 127.219 77.4172C118.096 83.5331 109.599 90.5351 101.852 98.3212C96.3141 103.817 91.169 109.696 86.4553 115.914L139.191 115.953Z" fill="#F6CB3C"/>
</svg>
